<svg width="205" height="79" xmlns="http://www.w3.org/2000/svg"><g fill="none" fill-rule="evenodd"><g fill="#231F20"><path d="M88.65 18.25h-5.19l-3.17 4.69h3.27l5.09-4.69zm-17.41 30.4h5.25l1.85-5.25h8.82l1.78 5.25h5.38L85.5 25.06h-5.32l-8.94 23.59zm11.53-17.78h.07l2.97 8.66H79.7l3.07-8.66zM94.5 48.65h5.19v-9.22h5.19c2.61 0 3.57 1.09 3.93 3.57.26 1.88.2 4.16.83 5.65h5.19c-.93-1.32-.89-4.1-.99-5.58-.17-2.38-.89-4.86-3.44-5.52v-.07c2.61-1.06 3.73-3.14 3.73-5.91 0-3.57-2.68-6.51-6.91-6.51H94.5v23.59zm5.19-19.56h5.68c2.31 0 3.57.99 3.57 3.27 0 2.38-1.26 3.37-3.57 3.37h-5.68v-6.64zm21.97 9.05h5.65c2.21 0 3.73.96 3.73 3.37 0 2.44-1.78 3.11-3.83 3.11h-5.55v-6.48zm-5.18 10.51h11.43c4.26 0 8.33-2.05 8.33-6.84 0-2.94-1.45-5.15-4.33-5.98 2.05-.99 3.21-2.61 3.21-4.92 0-4.39-3.04-5.85-7.53-5.85h-11.1v23.59h-.01zm5.18-19.56h4.86c1.85 0 3.57.46 3.57 2.71 0 1.98-1.35 2.81-3.17 2.81h-5.25v-5.52h-.01zm15.16 7.86c0 6.81 4.3 12.26 11.6 12.26s11.6-5.45 11.6-12.26c0-7-4.29-12.46-11.6-12.46-7.3 0-11.6 5.46-11.6 12.46zm5.19 0c0-4.13 1.75-8.09 6.41-8.09s6.41 3.96 6.41 8.09c0 3.93-1.75 7.9-6.41 7.9s-6.41-3.97-6.41-7.9zm19.66 11.7h5.19v-9.22h5.19c2.61 0 3.57 1.09 3.93 3.57.26 1.88.2 4.16.83 5.65H182c-.92-1.32-.89-4.1-.99-5.58-.17-2.38-.89-4.86-3.44-5.52v-.07c2.61-1.06 3.73-3.14 3.73-5.91 0-3.57-2.68-6.51-6.9-6.51h-12.72v23.59h-.01zm5.19-19.56h5.68c2.31 0 3.57.99 3.57 3.27 0 2.38-1.26 3.37-3.57 3.37h-5.68v-6.64zm34.37 19.56h3.3V35.89h-9.91v3.87h5.22c-.3 3.27-2.25 5.09-5.62 5.09-4.66 0-6.41-3.96-6.41-7.9 0-4.13 1.75-8.09 6.41-8.09 2.44 0 4.39 1.35 4.99 3.96h4.96c-.56-5.35-5.12-8.33-9.94-8.33-7.3 0-11.6 5.45-11.6 12.46 0 6.81 4.29 12.26 11.6 12.26 2.28 0 4.66-.89 6.48-3.24l.52 2.68zM72.12 10.69c.06 3.77 2.87 5.43 6.34 5.43 3.02 0 6.04-1.36 6.04-4.77 0-1.57-.96-3.28-2.96-3.87-.79-.23-4.15-1.11-4.38-1.17-1.09-.3-1.81-.89-1.81-1.96 0-1.53 1.55-1.98 2.79-1.98 1.83 0 3.15.72 3.28 2.68h2.66c0-3.17-2.66-4.85-5.83-4.85-2.75 0-5.55 1.43-5.55 4.47 0 1.57.77 3.15 3.36 3.85 2.09.57 3.47.85 4.53 1.26.62.23 1.26.7 1.26 1.87 0 1.15-.87 2.3-3.21 2.3-2.13 0-3.85-.92-3.85-3.26h-2.67zm17.29 5.07h2.72l3.94-11h-2.51l-2.69 8.44h-.04l-2.79-8.44H85.4zm18.11-4.88c.4-3.3-1.72-6.43-5.19-6.43-3.28 0-5.32 2.68-5.32 5.81 0 3.38 1.94 5.79 5.38 5.79 2.4 0 4.45-1.34 4.98-3.75h-2.3c-.43 1.21-1.28 1.83-2.68 1.83-2.02 0-2.96-1.53-2.96-3.26h8.09v.01zm-8.09-1.59c.06-1.64 1.21-2.92 2.89-2.92 1.64 0 2.68 1.38 2.77 2.92h-5.66zm10.01 6.47h2.43v-11h-2.43v11zm0-12.9h2.43V.56h-2.43v2.3zm3.95 3.71h1.83v6.49c.04 1.83.51 2.81 3.04 2.81.53 0 1.04-.09 1.58-.13v-1.87c-.34.08-.68.08-1.02.08-1.09 0-1.17-.51-1.17-1.51V6.57h2.19V4.76h-2.19v-3.3h-2.43v3.3h-1.83v1.81zm14.98 5.49c0 1.53-1.66 2.09-2.72 2.09-.85 0-2.23-.32-2.23-1.4 0-1.28.94-1.66 1.98-1.83 1.06-.19 2.23-.17 2.98-.66v1.8h-.01zm2.43-4.41c0-2.32-2.26-3.19-4.41-3.19-2.43 0-4.83.83-5 3.66h2.43c.11-1.19 1.06-1.75 2.43-1.75.98 0 2.28.23 2.28 1.49 0 1.43-1.55 1.23-3.3 1.55-2.04.23-4.23.68-4.23 3.43 0 2.15 1.79 3.21 3.77 3.21 1.3 0 2.85-.4 3.81-1.34.19 1 .89 1.34 1.87 1.34.4 0 1.17-.15 1.53-.28V14.1c-.26.04-.45.04-.6.04-.45 0-.57-.23-.57-.83V7.65h-.01zm2.62 8.11h2.43v-5.24c0-2.43 1.32-3.77 2.98-3.77.34 0 .7.06 1.04.11V4.52c-.21-.02-.36-.06-.92-.06-1.49 0-2.94 1.26-3.21 2.43h-.04V4.76h-2.28v11z"/><path d="M139.82 6.57h1.81v9.19h2.43V6.57h2.06V4.76h-2.06V3.63c0-.92.53-1.15 1.19-1.15.49 0 .81.04 1.13.13V.72c-.38-.11-.94-.15-1.7-.15-1.57 0-3.04.47-3.04 3.28v.91h-1.81v1.81h-.01zm10.84-3.32h1.77l3.02-3.04h-2.87l-1.92 3.04zm6.93 7.63c.4-3.3-1.72-6.43-5.19-6.43-3.28 0-5.32 2.68-5.32 5.81 0 3.38 1.94 5.79 5.38 5.79 2.41 0 4.45-1.34 4.98-3.75h-2.3c-.43 1.21-1.28 1.83-2.68 1.83-2.02 0-2.96-1.53-2.96-3.26h8.09v.01zm-8.08-1.59c.06-1.64 1.21-2.92 2.89-2.92 1.64 0 2.68 1.38 2.77 2.92h-5.66zm10-8.73h2.43v15.19h-2.43zm11.85 11.5c0 1.53-1.66 2.09-2.72 2.09-.85 0-2.23-.32-2.23-1.4 0-1.28.94-1.66 1.98-1.83 1.06-.19 2.23-.17 2.98-.66v1.8h-.01zm2.43-4.41c0-2.32-2.26-3.19-4.41-3.19-2.43 0-4.83.83-5 3.66h2.43c.11-1.19 1.06-1.75 2.43-1.75.98 0 2.28.23 2.28 1.49 0 1.43-1.55 1.23-3.3 1.55-2.04.23-4.23.68-4.23 3.43 0 2.15 1.79 3.21 3.77 3.21 1.3 0 2.85-.4 3.81-1.34.19 1 .89 1.34 1.87 1.34.4 0 1.17-.15 1.53-.28V14.1c-.26.04-.45.04-.6.04-.45 0-.57-.23-.57-.83V7.65h-.01zm7.41 6.19c-2.02 0-2.89-1.83-2.89-3.64 0-1.83.74-3.83 2.89-3.83 2.11 0 2.96 1.75 2.96 3.64 0 1.88-.81 3.83-2.96 3.83zm5.39-9.08h-2.43v1.51h-.04c-.62-1.23-1.87-1.81-3.26-1.81-3.13 0-4.98 2.55-4.98 5.51 0 3.15 1.45 5.79 4.94 5.79 1.36 0 2.62-.72 3.3-1.94h.04v1.68c0 1.81-.87 2.81-2.83 2.81-1.23 0-2.34-.23-2.64-1.62h-2.43c.21 2.58 2.7 3.43 4.92 3.43 3.47 0 5.41-1.64 5.41-4.94V4.76zm2.51 11h2.43v-11h-2.43v11zm0-12.9h2.43V.56h-2.43v2.3zm10.15 4.05c2.06 0 2.92 1.81 2.92 3.64s-1.19 3.6-3.15 3.6-2.81-1.66-2.81-3.6c-.01-1.96.78-3.64 3.04-3.64zm-2.24-2.66l2.3-1.11c.91.77 1.81 1.68 2.3 2.79h-.04c-.96-.68-1.87-.94-3.04-.94-2.94 0-4.75 2.62-4.75 5.41 0 3.32 1.85 5.66 5.09 5.66 4.15 0 5.72-3.11 5.72-6.87 0-2.75-1.17-5.23-3.3-6.98l2-.96-1.04-1.04-2.23 1.06c-.68-.45-1.43-.81-2.21-1.06l-1.62 1.3c.55.17 1.17.45 1.81.72l-2.04.98 1.05 1.04z"/></g><path d="M22.15 14.13v9.98h4.02v-9.98h-4.02zm11.88 0v9.98h4.02v-9.98h-4.02zm-6.34-4.49v14.48h4.83V9.64h-4.83zm15.82 58.97c8.05-6.23 13.93-15.11 13.93-25.85V26.59h-23.8c-.07.08-.11.16-.1.24.07.81 7.08.95 7.62 2.96.66 2.46-7.07 3.33-6.95 4.7.2 2.25 19.37 2.55 3.85 9.38-2.07.91-2.91 1.33-2.84 2.2.14 1.58 13.07 3.26 13.07 9.24 0 5.27-6.93 7.8-6.93 10.31 0 1.1.79 2.04 2.15 2.99zM2.77 26.59v16.17c0 8.58 3.75 15.96 9.36 21.76 3.68-5.04 12.19-6.73 12.35-9.01.23-3.07-9.94-3.34-8.72-8.22 1.28-5.13 16.63-6.1 8.08-8.48-2.29-.64-5.58-1.57-5.12-3.39.65-2.6 8.38-3.63 8.47-4.81.08-1.08-7.02-1-6.51-3.04.09-.37.41-.69.85-.99H2.77v.01zM30.1.71h29.78v42.05c0 17.38-14.43 30.73-29.78 35.76C14.75 73.48.32 60.14.32 42.76V.71H30.1z" fill="#012d98" fill-rule="nonzero"/></g></svg>